<svg width="14" height="14" viewBox="0 0 14 14" fill="none" xmlns="http://www.w3.org/2000/svg">
<path d="M8.75 0.500035L8.75 0.500035L5.25 0.500016C5.03154 0.500013 4.90512 0.527328 4.83545 0.553658C4.77455 0.576673 4.75834 0.597899 4.75162 0.607111C4.7395 0.623735 4.72076 0.659233 4.70225 0.74196C4.68753 0.807758 4.67887 0.871028 4.66727 0.955757C4.66253 0.990428 4.65729 1.02869 4.65094 1.07219C4.61326 1.33041 4.5421 1.7441 4.18867 2.0602C3.84232 2.36996 3.32606 2.50001 2.62486 2.50001C2.05401 2.50001 1.68055 2.63984 1.41991 2.84857C1.1542 3.06136 0.95167 3.38903 0.805881 3.86153C0.505178 4.83609 0.499999 6.22288 0.499999 7.90422L0.499999 7.90476C0.499999 10.4565 0.825474 11.7537 1.66509 12.4787C2.08887 12.8446 2.68912 13.1051 3.56695 13.2705C4.44684 13.4364 5.56766 13.5 7 13.5C8.43132 13.5 9.55153 13.4327 10.4307 13.2626C11.3075 13.0929 11.9086 12.8275 12.3333 12.4576C13.1753 11.7244 13.5 10.4243 13.5 7.90476C13.5 6.25674 13.4949 4.8686 13.1938 3.88505C13.0475 3.4072 12.8439 3.07275 12.5768 2.85514C12.3157 2.64241 11.943 2.50001 11.375 2.50001C10.6738 2.50001 10.1575 2.36996 9.8112 2.0602C9.45777 1.74409 9.38664 1.33038 9.34898 1.07217C9.34264 1.02867 9.3374 0.990399 9.33266 0.955726C9.32106 0.871003 9.31241 0.807737 9.2977 0.741944C9.2792 0.659219 9.26046 0.623729 9.24834 0.607113C9.24163 0.59791 9.22543 0.57669 9.16454 0.553677C9.09488 0.527348 8.96846 0.500033 8.75 0.500035Z" stroke="#606066" stroke-linecap="round" stroke-linejoin="round"/>
<ellipse cx="0.583334" cy="0.583333" rx="0.583334" ry="0.583333" transform="matrix(-1 0 0 1 11.0833 4.08331)" fill="#606066"/>
<path d="M6.99999 5.16667C5.6653 5.16667 4.58332 6.24865 4.58332 7.58334C4.58332 8.91802 5.6653 10 6.99999 10C8.33468 10 9.41666 8.91802 9.41666 7.58333C9.41666 6.24865 8.33468 5.16667 6.99999 5.16667Z" stroke="#606066"/>
</svg>
