<svg width="16" height="16" viewBox="0 0 16 16" fill="none" xmlns="http://www.w3.org/2000/svg">
<path d="M0.852557 7.85497C1.20366 9.63639 2.32434 11.1428 3.64886 12.3482C4.96898 13.5496 6.43552 14.4005 7.36785 14.8759C7.7699 15.0809 8.23011 15.0809 8.63216 14.8759C9.5645 14.4005 11.031 13.5497 12.3512 12.3482C13.6757 11.1428 14.7964 9.63639 15.1475 7.85498C15.4374 6.38395 15.1278 4.61004 14.0323 3.21277C12.9544 1.83814 11.0527 0.75 8 0.75C4.94728 0.75 3.04556 1.83814 1.96774 3.21277C0.872169 4.61004 0.56263 6.38394 0.852557 7.85497Z" stroke="#0F0F10" stroke-width="1.5" stroke-linecap="round" stroke-linejoin="round"/>
<circle cx="2.66667" cy="2.66667" r="1.91667" transform="matrix(-1 0 0 1 10.6667 4)" stroke="#0F0F10" stroke-width="1.5"/>
</svg>
