<svg width="20" height="20" viewBox="0 0 20 20" fill="none" xmlns="http://www.w3.org/2000/svg">
<path d="M3.33333 0.75H16.6667C18.0934 0.75 19.25 1.9066 19.25 3.33333V5.83333C19.25 7.26007 18.0934 8.41667 16.6667 8.41667H3.33333C1.9066 8.41667 0.75 7.26007 0.75 5.83333V3.33333C0.75 1.9066 1.9066 0.75 3.33333 0.75Z" stroke="#0F0F10" stroke-width="1.5" stroke-linecap="round" stroke-linejoin="round"/>
<path d="M3.33333 11.5834H16.6667C18.0934 11.5834 19.25 12.74 19.25 14.1667V16.6667C19.25 18.0934 18.0934 19.25 16.6667 19.25H3.33333C1.9066 19.25 0.75 18.0934 0.75 16.6667V14.1667C0.75 12.74 1.9066 11.5834 3.33333 11.5834Z" stroke="#0F0F10" stroke-width="1.5" stroke-linecap="round" stroke-linejoin="round"/>
</svg>
