<svg width="18" height="18" viewBox="0 0 18 18" fill="none" xmlns="http://www.w3.org/2000/svg">
<path d="M1.66667 9.00309C1.66667 14.7481 2.4021 16.0824 7.16667 16.2982M1.66667 9.00309C1.66667 3.25412 2.40311 1.92195 7.17646 1.70751M1.66667 9.00309H3.06721C4.62356 9.00309 6.25 7.92573 6.25 6.25425M16.3333 9.00309C16.3333 14.7481 15.5979 16.0824 10.8333 16.2982M16.3333 9.00309C16.3333 3.25412 15.5969 1.92195 10.8236 1.70751M16.3333 9.00309H14.9328C13.3764 9.00309 11.75 7.92573 11.75 6.25425M7.16667 16.2982C7.72142 16.3233 8.3308 16.3333 9 16.3333C9.6692 16.3333 10.2786 16.3233 10.8333 16.2982M7.16667 16.2982V14.1666C7.16667 13.1541 7.98748 12.3333 9 12.3333V12.3333C10.0125 12.3333 10.8333 13.1541 10.8333 14.1666V16.2982M11.75 6.25425C11.75 8.08681 10.4887 9.00309 9 9.00309C7.51129 9.00309 6.25 8.08681 6.25 6.25425M11.75 6.25425C11.75 4.42169 10.8236 1.70751 10.8236 1.70751M6.25 6.25425C6.25 4.42169 7.17646 1.70751 7.17646 1.70751M7.17646 1.70751C8.38936 1.65302 9.61065 1.65302 10.8236 1.70751" stroke="#85858F" stroke-width="1.5" stroke-linecap="round" stroke-linejoin="round"/>
</svg>
