<svg width="16" height="17" viewBox="0 0 16 17" fill="none" xmlns="http://www.w3.org/2000/svg">
<path d="M0.75 8.5C0.75 10.1299 0.838312 11.3884 1.0557 12.3666C1.2712 13.3362 1.60343 13.9838 2.05983 14.4402C2.51623 14.8966 3.16376 15.2288 4.1334 15.4443C5.11156 15.6617 6.37012 15.75 8 15.75C9.62988 15.75 10.8884 15.6617 11.8666 15.4443C12.8362 15.2288 13.4838 14.8966 13.9402 14.4402C14.3966 13.9838 14.7288 13.3362 14.9443 12.3666C15.1617 11.3884 15.25 10.1299 15.25 8.5C15.25 6.87012 15.1617 5.61156 14.9443 4.6334C14.7288 3.66376 14.3966 3.01623 13.9402 2.55983C13.4838 2.10343 12.8362 1.7712 11.8666 1.5557C10.8884 1.33831 9.62988 1.25 8 1.25C6.37012 1.25 5.11156 1.33831 4.1334 1.5557C3.16376 1.7712 2.51623 2.10343 2.05983 2.55983C1.60343 3.01623 1.2712 3.66376 1.0557 4.6334C0.838312 5.61156 0.75 6.87012 0.75 8.5Z" stroke="#007AFF" stroke-width="1.5" stroke-linecap="round" stroke-linejoin="round"/>
<path d="M8 4.5C8 4.5 8 7.16667 8 7.83333C8 8.5 7.99999 8.5 8.66667 8.5C9.33334 8.5 12 8.5 12 8.5" stroke="#007AFF" stroke-width="1.5" stroke-linecap="round" stroke-linejoin="round"/>
</svg>
